<?xml version="1.0" encoding="UTF-8" standalone="no"?>
<!-- Created with Inkscape (http://www.inkscape.org/) -->

<svg
   xmlns:dc="http://purl.org/dc/elements/1.1/"
   xmlns:cc="http://creativecommons.org/ns#"
   xmlns:rdf="http://www.w3.org/1999/02/22-rdf-syntax-ns#"
   xmlns:svg="http://www.w3.org/2000/svg"
   xmlns="http://www.w3.org/2000/svg"
   xmlns:sodipodi="http://sodipodi.sourceforge.net/DTD/sodipodi-0.dtd"
   xmlns:inkscape="http://www.inkscape.org/namespaces/inkscape"
   width="1052.3622"
   height="744.09448"
   id="svg2"
   version="1.1"
   inkscape:version="0.48.5 r10040"
   sodipodi:docname="logo_opendataday_brasilia_2015.svg">
  <defs
     id="defs4" />
  <sodipodi:namedview
     id="base"
     pagecolor="#ffffff"
     bordercolor="#666666"
     borderopacity="1.0"
     inkscape:pageopacity="0.0"
     inkscape:pageshadow="2"
     inkscape:zoom="0.5"
     inkscape:cx="506.44898"
     inkscape:cy="317.72761"
     inkscape:document-units="px"
     inkscape:current-layer="layer1"
     showgrid="false"
     inkscape:window-width="1360"
     inkscape:window-height="693"
     inkscape:window-x="0"
     inkscape:window-y="0"
     inkscape:window-maximized="1" />
  <metadata
     id="metadata7">
    <rdf:RDF>
      <cc:Work
         rdf:about="">
        <dc:format>image/svg+xml</dc:format>
        <dc:type
           rdf:resource="http://purl.org/dc/dcmitype/StillImage" />
        <dc:title></dc:title>
      </cc:Work>
    </rdf:RDF>
  </metadata>
  <g
     inkscape:label="Camada 1"
     inkscape:groupmode="layer"
     id="layer1"
     transform="translate(0,-308.2677)">
    <path
       inkscape:connector-curvature="0"
       id="rect3809"
       d="m 48.713159,438.43363 964.192541,0 0,498.03963 -964.192541,0 z"
       style="fill:#ffffff;stroke:#000000;stroke-width:1.50315261" />
    <g
       id="flowRoot2985"
       style="font-size:60px;font-style:normal;font-variant:normal;font-weight:bold;font-stretch:normal;line-height:125%;letter-spacing:4.31999874px;word-spacing:0px;fill:#000000;fill-opacity:1;stroke:none;font-family:Droid Sans;-inkscape-font-specification:Droid Sans Bold"
       transform="matrix(1.5031526,0,0,1.5031526,-7.5233887,287.29752)">
      <path
         inkscape:connector-curvature="0"
         id="path3016"
         style="font-family:Droid Sans;-inkscape-font-specification:Droid Sans Bold"
         d="m 146.95703,233.92409 c -4e-5,3.3008 -0.39067,6.30861 -1.17187,9.02344 -0.76176,2.71485 -1.93364,5.03907 -3.51563,6.97265 -1.58207,1.9336 -3.58402,3.42774 -6.00586,4.48243 -2.40237,1.05468 -5.24416,1.58203 -8.52539,1.58203 -3.28127,0 -6.13283,-0.52735 -8.55469,-1.58203 -2.40235,-1.05469 -4.39454,-2.54883 -5.97656,-4.48243 -1.56251,-1.93358 -2.73438,-4.2578 -3.51562,-6.97265 -0.76173,-2.73436 -1.14259,-5.7617 -1.14258,-9.08203 -10e-6,-3.32029 0.38085,-6.3281 1.14258,-9.02344 0.78124,-2.71481 1.96288,-5.02926 3.54492,-6.94336 1.58202,-1.91402 3.57421,-3.38863 5.97656,-4.42383 2.42186,-1.05464 5.28318,-1.58199 8.58399,-1.58203 3.28122,4e-5 6.12301,0.52739 8.52539,1.58203 2.40231,1.0352 4.38473,2.51957 5.94726,4.45313 1.58199,1.91409 2.75387,4.22855 3.51563,6.94336 0.7812,2.69534 1.17183,5.71291 1.17187,9.05273 m -29.0625,0 c -1e-5,2.24611 0.1953,4.2676 0.58594,6.06445 0.39061,1.77736 0.98631,3.29103 1.78711,4.54102 0.82029,1.23048 1.84568,2.17774 3.07617,2.8418 1.23045,0.66407 2.69529,0.9961 4.39453,0.99609 1.73826,1e-5 3.22263,-0.33202 4.45313,-0.99609 1.24997,-0.66406 2.26559,-1.61132 3.04687,-2.8418 0.80075,-1.24999 1.38669,-2.76366 1.75781,-4.54102 0.3906,-1.79685 0.58591,-3.81834 0.58594,-6.06445 -3e-5,-2.24607 -0.19534,-4.25779 -0.58594,-6.03516 -0.37112,-1.79684 -0.95706,-3.32028 -1.75781,-4.57031 -0.78128,-1.24997 -1.78714,-2.207 -3.01758,-2.87109 -1.23049,-0.66403 -2.7051,-0.99606 -4.42382,-0.9961 -1.69924,4e-5 -3.17385,0.33207 -4.42383,0.9961 -1.25002,0.66409 -2.28518,1.62112 -3.10547,2.87109 -0.8008,1.25003 -1.3965,2.77347 -1.78711,4.57031 -0.39064,1.77737 -0.58595,3.78909 -0.58594,6.03516" />
      <path
         inkscape:connector-curvature="0"
         id="path3018"
         style="font-family:Droid Sans;-inkscape-font-specification:Droid Sans Bold"
         d="m 169.20672,232.72292 1.78711,0 c 2.55857,2e-5 4.4824,-0.50779 5.77148,-1.52344 1.30857,-1.0156 1.96287,-2.66599 1.96289,-4.95117 -2e-5,-2.12888 -0.58596,-3.70114 -1.75781,-4.7168 -1.15236,-1.01559 -2.96877,-1.5234 -5.44922,-1.52344 l -2.31445,0 0,12.71485 m 18.7207,-6.79688 c -3e-5,1.87503 -0.28323,3.6719 -0.84961,5.39063 -0.56644,1.71877 -1.50393,3.23244 -2.8125,4.54101 -1.28909,1.30862 -2.99807,2.35354 -5.12695,3.13477 -2.1094,0.78127 -4.72658,1.17189 -7.85156,1.17187 l -2.08008,0 0,15.23438 -9.08203,0 0,-42.83203 11.89453,0 c 2.75388,4e-5 5.12693,0.31254 7.11914,0.9375 2.01169,0.60551 3.66208,1.48441 4.95117,2.63672 1.30856,1.13285 2.27536,2.52933 2.90039,4.18945 0.62497,1.64066 0.93747,3.50589 0.9375,5.5957" />
      <path
         inkscape:connector-curvature="0"
         id="path3020"
         style="font-family:Droid Sans;-inkscape-font-specification:Droid Sans Bold"
         d="m 224.97203,255.3987 -24.66797,0 0,-42.83203 24.66797,0 0,7.4414 -15.58594,0 0,9.4043 14.50196,0 0,7.44141 -14.50196,0 0,11.04492 15.58594,0 0,7.5" />
      <path
         inkscape:connector-curvature="0"
         id="path3022"
         style="font-family:Droid Sans;-inkscape-font-specification:Droid Sans Bold"
         d="m 274.43851,255.3987 -11.51367,0 -16.8457,-32.40234 -0.26367,0 c 0.11717,1.50393 0.21483,2.99807 0.29297,4.48242 0.0781,1.26956 0.1367,2.60744 0.17578,4.01367 0.0586,1.38674 0.0879,2.63674 0.0879,3.75 l 0,20.15625 -8.11524,0 0,-42.83203 11.45508,0 16.81641,32.08008 0.17578,0 c -0.0586,-1.48437 -0.12699,-2.94921 -0.20508,-4.39453 -0.0196,-0.62499 -0.0489,-1.25975 -0.0879,-1.9043 -0.0196,-0.66405 -0.0391,-1.31834 -0.0586,-1.96289 -0.0196,-0.66405 -0.0391,-1.29881 -0.0586,-1.9043 -3e-5,-0.60545 -3e-5,-1.15232 0,-1.64062 l 0,-20.27344 8.14453,0 0,42.83203" />
      <path
         inkscape:connector-curvature="0"
         id="path3024"
         style="font-family:Droid Sans;-inkscape-font-specification:Droid Sans Bold"
         d="m 342.60976,233.57253 c -4e-5,3.6133 -0.49809,6.78712 -1.49414,9.52148 -0.9766,2.71486 -2.40238,4.99024 -4.27735,6.82617 -1.8555,1.81641 -4.14065,3.1836 -6.85547,4.10157 -2.69533,0.91797 -5.7715,1.37695 -9.22851,1.37695 l -11.2793,0 0,-42.83203 12.53906,0 c 3.14451,4e-5 5.97654,0.44926 8.4961,1.34765 2.53903,0.89848 4.707,2.23637 6.5039,4.01368 1.79684,1.75784 3.1738,3.94534 4.13086,6.5625 0.97653,2.61721 1.46481,5.64455 1.46485,9.08203 m -9.19922,0.23437 c -3e-5,-2.38279 -0.24417,-4.43356 -0.73242,-6.15234 -0.46878,-1.73825 -1.16214,-3.1738 -2.08008,-4.30664 -0.89847,-1.13278 -2.01175,-1.97262 -3.33985,-2.51953 -1.30861,-0.54684 -2.81252,-0.82028 -4.51171,-0.82032 l -4.18946,0 0,27.89063 3.33985,0 c 3.8281,1e-5 6.69919,-1.17187 8.61328,-3.51563 1.93356,-2.34373 2.90036,-5.86912 2.90039,-10.57617" />
      <path
         inkscape:connector-curvature="0"
         id="path3026"
         style="font-family:Droid Sans;-inkscape-font-specification:Droid Sans Bold"
         d="m 379.71297,255.3987 -2.92969,-10.19531 -14.76563,0 -2.95898,10.19531 -9.16992,0 13.91601,-43.00781 11.10352,0 13.97461,43.00781 -9.16992,0 m -5.03907,-17.8125 -2.7539,-9.375 c -0.11721,-0.35154 -0.29299,-0.92771 -0.52735,-1.72852 -0.23439,-0.80075 -0.4883,-1.67965 -0.76171,-2.63671 -0.25393,-0.97653 -0.49807,-1.9531 -0.73243,-2.92969 -0.23439,-0.97653 -0.40041,-1.80661 -0.49804,-2.49024 -0.0781,0.42973 -0.18557,0.93754 -0.32227,1.52344 -0.11721,0.58597 -0.26369,1.21097 -0.43945,1.875 -0.15627,0.64457 -0.32229,1.29886 -0.49805,1.96289 -0.1758,0.66409 -0.34181,1.28909 -0.49805,1.875 -0.15626,0.58597 -0.30275,1.10355 -0.43945,1.55274 -0.1172,0.44924 -0.20509,0.78127 -0.26367,0.99609 l -2.72461,9.375 10.45898,0" />
      <path
         inkscape:connector-curvature="0"
         id="path3028"
         style="font-family:Droid Sans;-inkscape-font-specification:Droid Sans Bold"
         d="m 410.60522,255.3987 -9.05273,0 0,-35.27344 -10.75195,0 0,-7.55859 30.52734,0 0,7.55859 -10.72266,0 0,35.27344" />
      <path
         inkscape:connector-curvature="0"
         id="path3030"
         style="font-family:Droid Sans;-inkscape-font-specification:Droid Sans Bold"
         d="m 453.04047,255.3987 -2.92969,-10.19531 -14.76563,0 -2.95898,10.19531 -9.16992,0 13.91601,-43.00781 11.10352,0 13.97461,43.00781 -9.16992,0 m -5.03907,-17.8125 -2.7539,-9.375 c -0.11721,-0.35154 -0.29299,-0.92771 -0.52735,-1.72852 -0.23439,-0.80075 -0.4883,-1.67965 -0.76171,-2.63671 -0.25393,-0.97653 -0.49807,-1.9531 -0.73243,-2.92969 -0.23439,-0.97653 -0.40041,-1.80661 -0.49804,-2.49024 -0.0782,0.42973 -0.18557,0.93754 -0.32227,1.52344 -0.11721,0.58597 -0.26369,1.21097 -0.43945,1.875 -0.15627,0.64457 -0.32229,1.29886 -0.49805,1.96289 -0.1758,0.66409 -0.34181,1.28909 -0.49805,1.875 -0.15626,0.58597 -0.30275,1.10355 -0.43945,1.55274 -0.1172,0.44924 -0.20509,0.78127 -0.26367,0.99609 l -2.72461,9.375 10.45898,0" />
      <path
         inkscape:connector-curvature="0"
         id="path3032"
         style="font-family:Droid Sans;-inkscape-font-specification:Droid Sans Bold"
         d="m 524.991,233.57253 c -4e-5,3.6133 -0.49809,6.78712 -1.49414,9.52148 -0.9766,2.71486 -2.40238,4.99024 -4.27735,6.82617 -1.8555,1.81641 -4.14065,3.1836 -6.85547,4.10157 -2.69533,0.91797 -5.7715,1.37695 -9.22851,1.37695 l -11.2793,0 0,-42.83203 12.53906,0 c 3.14451,4e-5 5.97654,0.44926 8.4961,1.34765 2.53903,0.89848 4.707,2.23637 6.5039,4.01368 1.79684,1.75784 3.1738,3.94534 4.13086,6.5625 0.97653,2.61721 1.46481,5.64455 1.46485,9.08203 m -9.19922,0.23437 c -3e-5,-2.38279 -0.24417,-4.43356 -0.73242,-6.15234 -0.46878,-1.73825 -1.16214,-3.1738 -2.08008,-4.30664 -0.89846,-1.13278 -2.01174,-1.97262 -3.33985,-2.51953 -1.30861,-0.54684 -2.81252,-0.82028 -4.51171,-0.82032 l -4.18946,0 0,27.89063 3.33985,0 c 3.8281,1e-5 6.69919,-1.17187 8.61328,-3.51563 1.93356,-2.34373 2.90036,-5.86912 2.90039,-10.57617" />
      <path
         inkscape:connector-curvature="0"
         id="path3034"
         style="font-family:Droid Sans;-inkscape-font-specification:Droid Sans Bold"
         d="m 562.09421,255.3987 -2.92969,-10.19531 -14.76562,0 -2.95899,10.19531 -9.16992,0 13.91601,-43.00781 11.10352,0 13.97461,43.00781 -9.16992,0 m -5.03906,-17.8125 -2.75391,-9.375 c -0.11721,-0.35154 -0.29299,-0.92771 -0.52734,-1.72852 -0.2344,-0.80075 -0.48831,-1.67965 -0.76172,-2.63671 -0.25393,-0.97653 -0.49807,-1.9531 -0.73243,-2.92969 -0.23439,-0.97653 -0.40041,-1.80661 -0.49804,-2.49024 -0.0781,0.42973 -0.18557,0.93754 -0.32227,1.52344 -0.1172,0.58597 -0.26369,1.21097 -0.43945,1.875 -0.15627,0.64457 -0.32229,1.29886 -0.49805,1.96289 -0.1758,0.66409 -0.34181,1.28909 -0.49804,1.875 -0.15627,0.58597 -0.30276,1.10355 -0.43946,1.55274 -0.1172,0.44924 -0.20509,0.78127 -0.26367,0.99609 l -2.72461,9.375 10.45899,0" />
      <path
         inkscape:connector-curvature="0"
         id="path3036"
         style="font-family:Droid Sans;-inkscape-font-specification:Droid Sans Bold"
         d="m 590.20328,230.20339 7.73437,-17.63672 9.78516,0 -13.00781,26.16211 0,16.66992 -9.02344,0 0,-16.37695 -13.00781,-26.45508 9.84375,0 7.67578,17.63672" />
    </g>
    <g
       id="text2999"
       style="font-size:40px;font-style:normal;font-variant:normal;font-weight:normal;font-stretch:normal;line-height:125%;letter-spacing:17.02000427px;word-spacing:0px;fill:#a9a9a9;fill-opacity:1;stroke:none;font-family:Droid Sans Armenian;-inkscape-font-specification:Droid Sans Armenian"
       transform="matrix(1.5031526,0,0,1.5031526,-178.94913,-224.78719)">
      <path
         inkscape:connector-curvature="0"
         id="path3039"
         style="font-size:30px;fill:#a9a9a9;font-family:Droid Sans Armenian;-inkscape-font-specification:Droid Sans Armenian"
         d="m 251.34166,505.35486 2.95898,0 0,21.87012 -2.95898,0 0,-21.87012" />
      <path
         inkscape:connector-curvature="0"
         id="path3041"
         style="font-size:30px;fill:#a9a9a9;font-family:Droid Sans Armenian;-inkscape-font-specification:Droid Sans Armenian"
         d="m 277.20932,505.35486 3.98438,0 9.69726,18.2959 0,-18.2959 2.87109,0 0,21.87012 -3.98437,0 -9.69727,-18.2959 0,18.2959 -2.87109,0 0,-21.87012" />
      <path
         inkscape:connector-curvature="0"
         id="path3043"
         style="font-size:30px;fill:#a9a9a9;font-family:Droid Sans Armenian;-inkscape-font-specification:Droid Sans Armenian"
         d="m 313.6385,505.35486 18.50098,0 0,2.49023 -7.76367,0 0,19.37989 -2.97363,0 0,-19.37989 -7.76368,0 0,-2.49023" />
      <path
         inkscape:connector-curvature="0"
         id="path3045"
         style="font-size:30px;fill:#a9a9a9;font-family:Droid Sans Armenian;-inkscape-font-specification:Droid Sans Armenian"
         d="m 352.03058,505.35486 13.82812,0 0,2.49023 -10.86914,0 0,6.47461 10.41504,0 0,2.49024 -10.41504,0 0,7.9248 11.13282,0 0,2.49024 -14.0918,0 0,-21.87012" />
      <path
         inkscape:connector-curvature="0"
         id="path3047"
         style="font-size:30px;fill:#a9a9a9;font-family:Droid Sans Armenian;-inkscape-font-specification:Droid Sans Armenian"
         d="m 398.40605,516.97107 c 0.63475,0.21485 1.24999,0.67384 1.8457,1.37695 0.60546,0.70314 1.21093,1.66993 1.81641,2.90039 l 3.00293,5.97657 -3.17871,0 -2.79785,-5.61036 c -0.72267,-1.46483 -1.4258,-2.43651 -2.10938,-2.91504 -0.67384,-0.4785 -1.59669,-0.71776 -2.76855,-0.71777 l -3.22266,0 0,9.24317 -2.95898,0 0,-21.87012 6.67969,0 c 2.49998,2e-5 4.36522,0.52248 5.5957,1.56738 1.23045,1.04494 1.84568,2.62209 1.8457,4.73145 -2e-5,1.37696 -0.32228,2.51954 -0.9668,3.42773 -0.63478,0.90822 -1.56251,1.5381 -2.7832,1.88965 m -7.41211,-9.18457 0,7.76367 3.72071,0 c 1.42577,10e-6 2.49998,-0.32714 3.22265,-0.98144 0.73241,-0.66405 1.09862,-1.63573 1.09863,-2.91504 -1e-5,-1.27928 -0.36622,-2.2412 -1.09863,-2.88575 -0.72267,-0.65427 -1.79688,-0.98142 -3.22265,-0.98144 l -3.72071,0" />
      <path
         inkscape:connector-curvature="0"
         id="path3049"
         style="font-size:30px;fill:#a9a9a9;font-family:Droid Sans Armenian;-inkscape-font-specification:Droid Sans Armenian"
         d="m 425.91434,505.35486 3.98437,0 9.69727,18.2959 0,-18.2959 2.87109,0 0,21.87012 -3.98437,0 -9.69727,-18.2959 0,18.2959 -2.87109,0 0,-21.87012" />
      <path
         inkscape:connector-curvature="0"
         id="path3051"
         style="font-size:30px;fill:#a9a9a9;font-family:Droid Sans Armenian;-inkscape-font-specification:Droid Sans Armenian"
         d="m 472.68532,508.2699 -4.01367,10.88379 8.04199,0 -4.02832,-10.88379 m -1.66992,-2.91504 3.35449,0 8.33496,21.87012 -3.07617,0 -1.99219,-5.61036 -9.8584,0 -1.99219,5.61036 -3.12011,0 8.34961,-21.87012" />
      <path
         inkscape:connector-curvature="0"
         id="path3053"
         style="font-size:30px;fill:#a9a9a9;font-family:Droid Sans Armenian;-inkscape-font-specification:Droid Sans Armenian"
         d="m 497.52759,505.35486 18.50097,0 0,2.49023 -7.76367,0 0,19.37989 -2.97363,0 0,-19.37989 -7.76367,0 0,-2.49023" />
      <path
         inkscape:connector-curvature="0"
         id="path3055"
         style="font-size:30px;fill:#a9a9a9;font-family:Droid Sans Armenian;-inkscape-font-specification:Droid Sans Armenian"
         d="m 535.91966,505.35486 2.95899,0 0,21.87012 -2.95899,0 0,-21.87012" />
      <path
         inkscape:connector-curvature="0"
         id="path3057"
         style="font-size:30px;fill:#a9a9a9;font-family:Droid Sans Armenian;-inkscape-font-specification:Droid Sans Armenian"
         d="m 570.66429,507.36169 c -2.14845,2e-5 -3.85743,0.8008 -5.12695,2.40235 -1.25977,1.60158 -1.88965,3.78419 -1.88965,6.54785 0,2.75391 0.62988,4.93165 1.88965,6.5332 1.26952,1.60157 2.9785,2.40235 5.12695,2.40235 2.14842,0 3.84764,-0.80078 5.09766,-2.40235 1.25975,-1.60155 1.88963,-3.77929 1.88965,-6.5332 -2e-5,-2.76366 -0.6299,-4.94627 -1.88965,-6.54785 -1.25002,-1.60155 -2.94924,-2.40233 -5.09766,-2.40235 m 0,-2.40234 c 3.06639,2e-5 5.51756,1.0303 7.35352,3.09082 1.83591,2.0508 2.75388,4.8047 2.7539,8.26172 -2e-5,3.44727 -0.91799,6.20118 -2.7539,8.26172 -1.83596,2.05078 -4.28713,3.07617 -7.35352,3.07617 -3.07618,0 -5.53711,-1.02539 -7.38281,-3.07617 -1.83594,-2.05078 -2.75391,-4.80468 -2.75391,-8.26172 0,-3.45702 0.91797,-6.21092 2.75391,-8.26172 1.8457,-2.06052 4.30663,-3.0908 7.38281,-3.09082" />
      <path
         inkscape:connector-curvature="0"
         id="path3059"
         style="font-size:30px;fill:#a9a9a9;font-family:Droid Sans Armenian;-inkscape-font-specification:Droid Sans Armenian"
         d="m 602.42061,505.35486 3.98437,0 9.69727,18.2959 0,-18.2959 2.87109,0 0,21.87012 -3.98437,0 -9.69727,-18.2959 0,18.2959 -2.87109,0 0,-21.87012" />
      <path
         inkscape:connector-curvature="0"
         id="path3061"
         style="font-size:30px;fill:#a9a9a9;font-family:Droid Sans Armenian;-inkscape-font-specification:Droid Sans Armenian"
         d="m 649.19157,508.2699 -4.01367,10.88379 8.04199,0 -4.02832,-10.88379 m -1.66992,-2.91504 3.35449,0 8.33497,21.87012 -3.07618,0 -1.99218,-5.61036 -9.8584,0 -1.99219,5.61036 -3.12012,0 8.34961,-21.87012" />
      <path
         inkscape:connector-curvature="0"
         id="path3063"
         style="font-size:30px;fill:#a9a9a9;font-family:Droid Sans Armenian;-inkscape-font-specification:Droid Sans Armenian"
         d="m 679.40984,505.35486 2.95898,0 0,19.37988 10.64941,0 0,2.49024 -13.60839,0 0,-21.87012" />
    </g>
    <g
       id="text3007"
       style="font-size:30px;font-style:normal;font-weight:normal;line-height:125%;letter-spacing:32.1300087px;word-spacing:0px;fill:#a9a9a9;fill-opacity:1;stroke:none;font-family:Sans"
       transform="matrix(1.5031526,0,0,1.5031526,-178.94913,-224.78719)">
      <path
         inkscape:connector-curvature="0"
         id="path3066"
         style="font-variant:normal;font-stretch:normal;fill:#a9a9a9;font-family:Droid Sans Arabic;-inkscape-font-specification:Droid Sans Arabic"
         d="m 252.70776,619.50208 2.95899,0 0,8.96484 10.75195,0 0,-8.96484 2.95899,0 0,21.87011 -2.95899,0 0,-10.41504 -10.75195,0 0,10.41504 -2.95899,0 0,-21.87011" />
      <path
         inkscape:connector-curvature="0"
         id="path3068"
         style="font-variant:normal;font-stretch:normal;fill:#a9a9a9;font-family:Droid Sans Arabic;-inkscape-font-specification:Droid Sans Arabic"
         d="m 314.70594,622.41711 -4.01368,10.88379 8.042,0 -4.02832,-10.88379 m -1.66993,-2.91503 3.3545,0 8.33496,21.87011 -3.07617,0 -1.99219,-5.61035 -9.8584,0 -1.99219,5.61035 -3.12011,0 8.3496,-21.87011" />
      <path
         inkscape:connector-curvature="0"
         id="path3070"
         style="font-variant:normal;font-stretch:normal;fill:#a9a9a9;font-family:Droid Sans Arabic;-inkscape-font-specification:Droid Sans Arabic"
         d="m 375.8838,621.18665 0,3.12011 c -0.99612,-0.92771 -2.06057,-1.62107 -3.19336,-2.08008 -1.12306,-0.45896 -2.31935,-0.68845 -3.58887,-0.68847 -2.50001,2e-5 -4.41407,0.76662 -5.74219,2.2998 -1.32813,1.52346 -1.99219,3.73049 -1.99218,6.6211 -1e-5,2.88086 0.66405,5.08789 1.99218,6.62109 1.32812,1.52344 3.24218,2.28516 5.74219,2.28516 1.26952,0 2.46581,-0.22949 3.58887,-0.68848 1.13279,-0.45898 2.19724,-1.15234 3.19336,-2.08008 l 0,3.09082 c -1.03518,0.70313 -2.13381,1.23047 -3.2959,1.58203 -1.15236,0.35157 -2.37306,0.52735 -3.66211,0.52735 -3.31056,0 -5.91798,-1.01074 -7.82227,-3.03223 -1.9043,-2.03124 -2.85644,-4.7998 -2.85644,-8.30566 0,-3.51561 0.95214,-6.28417 2.85644,-8.30567 1.90429,-2.03123 4.51171,-3.04685 7.82227,-3.04687 1.30858,2e-5 2.53905,0.1758 3.69141,0.52734 1.16209,0.34182 2.25095,0.8594 3.2666,1.55274" />
      <path
         inkscape:connector-curvature="0"
         id="path3072"
         style="font-variant:normal;font-stretch:normal;fill:#a9a9a9;font-family:Droid Sans Arabic;-inkscape-font-specification:Droid Sans Arabic"
         d="m 412.61342,619.50208 2.95898,0 0,9.24316 9.81446,-9.24316 3.80859,0 -10.85449,10.19531 11.63086,11.6748 -3.89649,0 -10.50293,-10.53222 0,10.53222 -2.95898,0 0,-21.87011" />
      <path
         inkscape:connector-curvature="0"
         id="path3074"
         style="font-variant:normal;font-stretch:normal;fill:#a9a9a9;font-family:Droid Sans Arabic;-inkscape-font-specification:Droid Sans Arabic"
         d="m 471.21315,622.41711 -4.01367,10.88379 8.04199,0 -4.02832,-10.88379 m -1.66992,-2.91503 3.35449,0 8.33496,21.87011 -3.07617,0 -1.99219,-5.61035 -9.8584,0 -1.99218,5.61035 -3.12012,0 8.34961,-21.87011" />
      <path
         inkscape:connector-curvature="0"
         id="path3076"
         style="font-variant:normal;font-stretch:normal;fill:#a9a9a9;font-family:Droid Sans Arabic;-inkscape-font-specification:Droid Sans Arabic"
         d="m 511.16544,619.50208 18.50097,0 0,2.49023 -7.76367,0 0,19.37988 -2.97363,0 0,-19.37988 -7.76367,0 0,-2.49023" />
      <path
         inkscape:connector-curvature="0"
         id="path3078"
         style="font-variant:normal;font-stretch:normal;fill:#a9a9a9;font-family:Droid Sans Arabic;-inkscape-font-specification:Droid Sans Arabic"
         d="m 564.66751,619.50208 2.95899,0 0,8.96484 10.75195,0 0,-8.96484 2.95898,0 0,21.87011 -2.95898,0 0,-10.41504 -10.75195,0 0,10.41504 -2.95899,0 0,-21.87011" />
      <path
         inkscape:connector-curvature="0"
         id="path3080"
         style="font-variant:normal;font-stretch:normal;fill:#a9a9a9;font-family:Droid Sans Arabic;-inkscape-font-specification:Droid Sans Arabic"
         d="m 628.23306,621.50891 c -2.14844,2e-5 -3.85743,0.8008 -5.12695,2.40234 -1.25977,1.60158 -1.88965,3.7842 -1.88965,6.54786 0,2.75391 0.62988,4.93164 1.88965,6.5332 1.26952,1.60156 2.97851,2.40235 5.12695,2.40234 2.14843,1e-5 3.84764,-0.80078 5.09766,-2.40234 1.25975,-1.60156 1.88963,-3.77929 1.88965,-6.5332 -2e-5,-2.76366 -0.6299,-4.94628 -1.88965,-6.54786 -1.25002,-1.60154 -2.94923,-2.40232 -5.09766,-2.40234 m 0,-2.40234 c 3.06639,2e-5 5.51756,1.03029 7.35352,3.09082 1.83591,2.0508 2.75388,4.8047 2.7539,8.26172 -2e-5,3.44727 -0.91799,6.20117 -2.7539,8.26172 -1.83596,2.05078 -4.28713,3.07617 -7.35352,3.07617 -3.07618,0 -5.53711,-1.02539 -7.38281,-3.07617 -1.83594,-2.05078 -2.75391,-4.80468 -2.75391,-8.26172 0,-3.45702 0.91797,-6.21092 2.75391,-8.26172 1.8457,-2.06053 4.30663,-3.0908 7.38281,-3.09082" />
      <path
         inkscape:connector-curvature="0"
         id="path3082"
         style="font-variant:normal;font-stretch:normal;fill:#a9a9a9;font-family:Droid Sans Arabic;-inkscape-font-specification:Droid Sans Arabic"
         d="m 675.0994,619.50208 3.98437,0 9.69727,18.29589 0,-18.29589 2.87109,0 0,21.87011 -3.98437,0 -9.69727,-18.2959 0,18.2959 -2.87109,0 0,-21.87011" />
    </g>
    <g
       id="flowRoot2985-3"
       style="font-size:40px;font-style:normal;font-variant:normal;font-weight:600;font-stretch:normal;line-height:125%;letter-spacing:0px;word-spacing:0px;fill:#000000;fill-opacity:1;stroke:none;font-family:FreeSans;-inkscape-font-specification:FreeSans Semi-Bold"
       transform="matrix(1.5031526,0,0,1.5031526,153.83142,508.72384)">
      <path
         inkscape:connector-curvature="0"
         id="path3085"
         style="font-family:FreeSans;-inkscape-font-specification:FreeSans Semi-Bold"
         d="m 131.6225,224.69375 c -3e-5,0.96001 -0.16003,1.89334 -0.48,2.8 -0.32003,0.90667 -0.84003,1.8 -1.56,2.68 -0.69336,0.88 -1.74669,1.58667 -3.16,2.12 -1.41335,0.53333 -3.09335,0.8 -5.04,0.8 l -13.12,0 0,-29.16 13,0 c 1.81332,3e-5 3.37331,0.2667 4.68,0.8 1.33331,0.53336 2.31998,1.22669 2.96,2.08 0.66664,0.82669 1.14664,1.64002 1.44,2.44 0.29331,0.80002 0.43997,1.58669 0.44,2.36 -3e-5,1.25335 -0.30669,2.33335 -0.92,3.24 -0.61336,0.90668 -1.64002,1.82668 -3.08,2.76 3.22664,1.89335 4.83997,4.25334 4.84,7.08 m -17.36,-15.76 0,6.6 6.52,0 c 2.82665,2e-5 4.23998,-1.09331 4.24,-3.28 -2e-5,-2.21331 -1.41335,-3.31998 -4.24,-3.32 l -6.52,0 m 0,11.6 0,7.56 7.16,0 c 2.95998,0 4.43998,-1.25333 4.44,-3.76 -2e-5,-2.53332 -1.48002,-3.79999 -4.44,-3.8 l -7.16,0" />
      <path
         inkscape:connector-curvature="0"
         id="path3087"
         style="font-family:FreeSans;-inkscape-font-specification:FreeSans Semi-Bold"
         d="m 152.9075,228.09375 c -2e-5,-0.79999 0.0133,-1.42666 0.04,-1.88 0.0267,-0.45333 0.04,-0.85333 0.04,-1.2 -2e-5,-1.22666 -0.29335,-2.10666 -0.88,-2.64 -0.58669,-0.55999 -1.53335,-0.83999 -2.84,-0.84 l -6.88,0 0,11.56 -6,0 0,-29.16 15.64,0 c 1.49331,3e-5 2.77331,0.25336 3.84,0.76 1.09331,0.50669 1.90664,1.17336 2.44,2 0.55997,0.82669 0.95997,1.66669 1.2,2.52 0.23997,0.82669 0.35997,1.69336 0.36,2.6 -3e-5,3.52002 -1.64003,5.92002 -4.92,7.2 0.71998,0.29335 1.25331,0.53335 1.6,0.72 0.34664,0.16001 0.69331,0.44001 1.04,0.84 0.37331,0.40001 0.61331,0.76001 0.72,1.08 0.13331,0.32001 0.25331,0.90668 0.36,1.76 0.13331,0.85334 0.21331,1.69334 0.24,2.52 0.0266,0.82667 0.0533,2.05334 0.08,3.68 -3e-5,1.12 0.42664,1.92 1.28,2.4 l 0,1.08 -6.44,0 c -0.37335,-0.69333 -0.62669,-1.36 -0.76,-2 -0.10669,-0.64 -0.16002,-1.64 -0.16,-3 m 0.96,-15.44 c -2e-5,-1.49331 -0.34669,-2.47998 -1.04,-2.96 -0.69335,-0.50664 -1.76002,-0.75998 -3.2,-0.76 l -7.24,0 0,7.6 7.24,0 c 1.41332,2e-5 2.46665,-0.25332 3.16,-0.76 0.71998,-0.50665 1.07998,-1.54665 1.08,-3.12" />
      <path
         inkscape:connector-curvature="0"
         id="path3089"
         style="font-family:FreeSans;-inkscape-font-specification:FreeSans Semi-Bold"
         d="m 181.49375,227.21375 -10.92,0 -1.96,5.88 -6.12,0 10.36,-29.16 6.64,0 10.08,29.16 -6.16,0 -1.92,-5.88 m -1.64,-5 -3.8,-11.4 -3.8,11.4 7.6,0" />
      <path
         inkscape:connector-curvature="0"
         id="path3091"
         style="font-family:FreeSans;-inkscape-font-specification:FreeSans Semi-Bold"
         d="m 214.58437,212.81375 -5.6,0 c -0.21335,-3.03998 -2.25335,-4.55998 -6.12,-4.56 -1.54667,2e-5 -2.77334,0.33336 -3.68,1 -0.90667,0.64002 -1.36,1.50669 -1.36,2.6 0,1.06669 0.38666,1.86669 1.16,2.4 0.77333,0.50668 2.22666,0.97335 4.36001,1.4 l 4.56,0.88 c 2.69331,0.53335 4.65331,1.44002 5.87999,2.72 1.22665,1.25335 1.83998,3.02668 1.84,5.32 -2e-5,2.96001 -1.05335,5.28 -3.15999,6.96 -2.10669,1.65333 -5.04002,2.48 -8.80001,2.48 -3.73334,0 -6.64,-0.82667 -8.72,-2.48 -2.05333,-1.65333 -3.17333,-4.03999 -3.36,-7.16 l 5.84,0 c 0.10666,1.57334 0.72,2.77334 1.84,3.6 1.11999,0.82667 2.69333,1.24 4.72,1.24 1.81332,0 3.23999,-0.34666 4.28,-1.04 1.06665,-0.69333 1.59999,-1.65333 1.6,-2.88 -1e-5,-1.17332 -0.41335,-2.07999 -1.24,-2.72 -0.82668,-0.63999 -2.24001,-1.14666 -4.24,-1.52 l -4.08,-0.8 c -2.96,-0.55999 -5.06667,-1.43999 -6.32,-2.64 -1.25333,-1.19998 -1.88,-2.93331 -1.88,-5.2 0,-2.85331 0.96,-5.05331 2.88,-6.6 1.94666,-1.5733 4.66666,-2.35997 8.16,-2.36 1.01332,3e-5 1.98666,0.0667 2.92,0.2 0.95999,0.13336 1.97332,0.41336 3.04,0.84 1.06665,0.40003 1.98665,0.93336 2.76,1.6 0.77332,0.64003 1.41332,1.54669 1.92,2.72 0.53331,1.14669 0.79998,2.48002 0.8,4" />
      <path
         inkscape:connector-curvature="0"
         id="path3093"
         style="font-family:FreeSans;-inkscape-font-specification:FreeSans Semi-Bold"
         d="m 228.37,197.09375 -6.24,4.8 -3.2,0 4,-4.8 5.44,0 m -1.92,6.84 0,29.16 -6,0 0,-29.16 6,0" />
      <path
         inkscape:connector-curvature="0"
         id="path3095"
         style="font-family:FreeSans;-inkscape-font-specification:FreeSans Semi-Bold"
         d="m 238.87187,203.93375 0,24.16 13.96,0 0,5 -19.96,0 0,-29.16 6,0" />
      <path
         inkscape:connector-curvature="0"
         id="path3097"
         style="font-family:FreeSans;-inkscape-font-specification:FreeSans Semi-Bold"
         d="m 263.6375,203.93375 0,29.16 -6,0 0,-29.16 6,0" />
      <path
         inkscape:connector-curvature="0"
         id="path3099"
         style="font-family:FreeSans;-inkscape-font-specification:FreeSans Semi-Bold"
         d="m 286.25937,227.21375 -10.91999,0 -1.96001,5.88 -6.12,0 10.36,-29.16 6.64,0 10.08001,29.16 -6.16001,0 -1.92,-5.88 m -1.64,-5 -3.8,-11.4 -3.79999,11.4 7.59999,0" />
      <path
         inkscape:connector-curvature="0"
         id="path3101"
         style="font-family:FreeSans;-inkscape-font-specification:FreeSans Semi-Bold"
         d="m 326.44375,213.13375 c -2e-5,1.57335 -0.34669,3.00002 -1.04,4.28 -0.66669,1.28001 -1.52002,2.36001 -2.56,3.24 -1.04002,0.85334 -2.10668,1.65334 -3.2,2.4 -1.09335,0.72001 -2.14668,1.52001 -3.16,2.4 -1.01334,0.85334 -1.73334,1.73334 -2.16,2.64 l 12,0 0,5 -19.28,0 c 0.13333,-2.61333 0.65333,-4.68 1.56,-6.2 0.93333,-1.54666 2.59999,-3.15999 5,-4.84 3.11999,-2.18665 5.10665,-3.79999 5.96,-4.84 0.85332,-1.06665 1.27998,-2.38665 1.28,-3.96 -2e-5,-1.41331 -0.36001,-2.51998 -1.08,-3.32 -0.69335,-0.82664 -1.66668,-1.23998 -2.92,-1.24 -1.28001,2e-5 -2.28001,0.44002 -3,1.32 -0.69334,0.88002 -1.04001,2.10669 -1.04,3.68 l 0,0.92 -5.36,0 c -0.0267,-0.29331 -0.04,-0.62665 -0.04,-1 0,-2.98664 0.81333,-5.30664 2.44,-6.96 1.65333,-1.67997 3.94666,-2.51997 6.88,-2.52 2.98665,3e-5 5.34665,0.81336 7.08,2.44 1.75998,1.62669 2.63998,3.81336 2.64,6.56" />
      <path
         inkscape:connector-curvature="0"
         id="path3103"
         style="font-family:FreeSans;-inkscape-font-specification:FreeSans Semi-Bold"
         d="m 343.82938,232.89375 c -1.30669,0.74667 -2.90668,1.12 -4.8,1.12 -1.89335,0 -3.49335,-0.37333 -4.80001,-1.12 -1.30667,-0.77333 -2.32,-1.86666 -3.04,-3.28 -0.69333,-1.41333 -1.18666,-2.95999 -1.47999,-4.64 -0.29334,-1.70666 -0.44001,-3.66665 -0.44,-5.88 -1e-5,-4.82665 0.73333,-8.51998 2.2,-11.08 1.46666,-2.58664 3.98665,-3.87997 7.56,-3.88 1.86665,3e-5 3.43998,0.36003 4.71999,1.08 1.30665,0.69336 2.31999,1.73336 3.04,3.12 0.71999,1.38669 1.22665,2.96002 1.52,4.72 0.31998,1.76002 0.47998,3.82668 0.48,6.2 -2e-5,2.13335 -0.14668,4.04001 -0.44,5.72 -0.29335,1.65334 -0.78668,3.2 -1.48,4.64 -0.69335,1.41334 -1.70668,2.50667 -3.03999,3.28 m -0.64001,-13.76 c -10e-6,-3.86665 -0.36001,-6.57331 -1.08,-8.12 -0.69334,-1.57331 -1.72001,-2.35998 -3.07999,-2.36 -1.49335,2e-5 -2.56001,0.76002 -3.2,2.28 -0.64001,1.49335 -0.96001,4.20002 -0.96001,8.12 0,2.72001 0.17333,4.85334 0.52,6.4 0.34666,1.52001 0.8,2.53334 1.36,3.04 0.58666,0.48 1.34666,0.72 2.28001,0.72 0.90665,0 1.63998,-0.24 2.19999,-0.72 0.58666,-0.47999 1.05332,-1.47999 1.4,-3 0.37332,-1.54666 0.55999,-3.66666 0.56,-6.36" />
      <path
         inkscape:connector-curvature="0"
         id="path3105"
         style="font-family:FreeSans;-inkscape-font-specification:FreeSans Semi-Bold"
         d="m 359.895,213.53375 -6.8,0 0,-3.72 c 4.90666,2e-5 7.79999,-1.69331 8.68,-5.08 l 3.72,0 0,28.36 -5.6,0 0,-19.56" />
      <path
         inkscape:connector-curvature="0"
         id="path3107"
         style="font-family:FreeSans;-inkscape-font-specification:FreeSans Semi-Bold"
         d="m 392.20062,204.73375 0,5 -11.72,0 -0.91999,5.92 c 1.51999,-1.14665 3.15998,-1.71998 4.91999,-1.72 2.61332,2e-5 4.73332,0.90668 6.36,2.72 1.65332,1.81335 2.47998,4.17335 2.48,7.08 -2e-5,3.06667 -0.94668,5.54667 -2.84,7.44 -1.89334,1.89333 -4.36001,2.84 -7.4,2.84 -2.74667,0 -4.98667,-0.76 -6.71999,-2.28 -1.70667,-1.54666 -2.58667,-3.56 -2.64001,-6.04 l 5.52001,0 c 0.13332,2.34667 1.43999,3.52 3.91999,3.52 1.41333,0 2.51999,-0.48 3.32,-1.44 0.82666,-0.95999 1.23999,-2.26666 1.24,-3.92 -10e-6,-1.70666 -0.41334,-3.03999 -1.24,-4 -0.80001,-0.98665 -1.90667,-1.47999 -3.32,-1.48 -1.78667,1e-5 -2.98667,0.72001 -3.59999,2.16 l -5.04001,0 2.52,-15.8 15.16,0" />
    </g>
  </g>
</svg>
